<mxfile host="app.diagrams.net" modified="2023-12-24T14:13:04.215Z" agent="Mozilla/5.0 (Windows NT 10.0; Win64; x64) AppleWebKit/537.36 (KHTML, like Gecko) Chrome/120.0.0.0 Safari/537.36" etag="y3QmauiPvhhvmuHvpy9O" version="22.1.11" type="github">
  <diagram name="Page-1" id="r1ssAH4mPtT1wUzzTtvj">
    <mxGraphModel dx="3155" dy="1305" grid="1" gridSize="10" guides="1" tooltips="1" connect="1" arrows="1" fold="1" page="1" pageScale="1" pageWidth="1169" pageHeight="827" background="#FFFFFF" math="0" shadow="0">
      <root>
        <mxCell id="0" />
        <mxCell id="1" parent="0" />
        <mxCell id="BbcCM_fRbmNqIQQwemn0-5" value="Admin" style="rounded=0;whiteSpace=wrap;html=1;" parent="1" vertex="1">
          <mxGeometry x="533" y="341" width="120" height="60" as="geometry" />
        </mxCell>
        <mxCell id="BbcCM_fRbmNqIQQwemn0-9" value="Salary&amp;nbsp;" style="rounded=0;whiteSpace=wrap;html=1;" parent="1" vertex="1">
          <mxGeometry x="903" y="650" width="120" height="60" as="geometry" />
        </mxCell>
        <mxCell id="BbcCM_fRbmNqIQQwemn0-12" value="Leave" style="rounded=0;whiteSpace=wrap;html=1;" parent="1" vertex="1">
          <mxGeometry x="1080" y="341" width="120" height="60" as="geometry" />
        </mxCell>
        <mxCell id="BbcCM_fRbmNqIQQwemn0-21" value="" style="endArrow=classic;html=1;rounded=0;entryX=0.5;entryY=1;entryDx=0;entryDy=0;" parent="1" target="4R8q3-wa9ZuzRIbeYS99-15" edge="1">
          <mxGeometry width="50" height="50" relative="1" as="geometry">
            <mxPoint x="593" y="340" as="sourcePoint" />
            <mxPoint x="553" y="560" as="targetPoint" />
          </mxGeometry>
        </mxCell>
        <mxCell id="BbcCM_fRbmNqIQQwemn0-27" value="" style="endArrow=classic;html=1;rounded=0;entryX=1;entryY=0.5;entryDx=0;entryDy=0;exitX=0;exitY=0.5;exitDx=0;exitDy=0;" parent="1" source="4R8q3-wa9ZuzRIbeYS99-4" target="4R8q3-wa9ZuzRIbeYS99-5" edge="1">
          <mxGeometry width="50" height="50" relative="1" as="geometry">
            <mxPoint x="695" y="446" as="sourcePoint" />
            <mxPoint x="130.01" y="239.77999999999997" as="targetPoint" />
          </mxGeometry>
        </mxCell>
        <mxCell id="BbcCM_fRbmNqIQQwemn0-35" value="" style="endArrow=classic;html=1;rounded=0;exitX=0.5;exitY=0;exitDx=0;exitDy=0;" parent="1" source="BbcCM_fRbmNqIQQwemn0-5" target="BbcCM_fRbmNqIQQwemn0-40" edge="1">
          <mxGeometry width="50" height="50" relative="1" as="geometry">
            <mxPoint x="218" y="190" as="sourcePoint" />
            <mxPoint x="183" y="120" as="targetPoint" />
          </mxGeometry>
        </mxCell>
        <mxCell id="BbcCM_fRbmNqIQQwemn0-40" value="ID" style="ellipse;whiteSpace=wrap;html=1;" parent="1" vertex="1">
          <mxGeometry x="193" y="230" width="110" height="60" as="geometry" />
        </mxCell>
        <mxCell id="BbcCM_fRbmNqIQQwemn0-41" value="Password" style="ellipse;whiteSpace=wrap;html=1;" parent="1" vertex="1">
          <mxGeometry x="373" y="50" width="110" height="60" as="geometry" />
        </mxCell>
        <mxCell id="4R8q3-wa9ZuzRIbeYS99-4" value="login" style="rounded=0;whiteSpace=wrap;html=1;" parent="1" vertex="1">
          <mxGeometry x="263" y="470" width="120" height="60" as="geometry" />
        </mxCell>
        <mxCell id="4R8q3-wa9ZuzRIbeYS99-5" value="email" style="ellipse;whiteSpace=wrap;html=1;" parent="1" vertex="1">
          <mxGeometry x="63" y="411" width="110" height="60" as="geometry" />
        </mxCell>
        <mxCell id="4R8q3-wa9ZuzRIbeYS99-6" value="ID" style="ellipse;whiteSpace=wrap;html=1;" parent="1" vertex="1">
          <mxGeometry x="53" y="490" width="110" height="60" as="geometry" />
        </mxCell>
        <mxCell id="4R8q3-wa9ZuzRIbeYS99-7" value="" style="endArrow=classic;html=1;rounded=0;exitX=0;exitY=0.5;exitDx=0;exitDy=0;" parent="1" source="4R8q3-wa9ZuzRIbeYS99-4" target="4R8q3-wa9ZuzRIbeYS99-6" edge="1">
          <mxGeometry width="50" height="50" relative="1" as="geometry">
            <mxPoint x="253" y="370" as="sourcePoint" />
            <mxPoint x="140.01" y="249.77999999999997" as="targetPoint" />
          </mxGeometry>
        </mxCell>
        <mxCell id="4R8q3-wa9ZuzRIbeYS99-8" value="" style="endArrow=classic;html=1;rounded=0;exitX=0;exitY=0.5;exitDx=0;exitDy=0;entryX=1;entryY=0.5;entryDx=0;entryDy=0;" parent="1" source="4R8q3-wa9ZuzRIbeYS99-4" target="4R8q3-wa9ZuzRIbeYS99-9" edge="1">
          <mxGeometry width="50" height="50" relative="1" as="geometry">
            <mxPoint x="263" y="380" as="sourcePoint" />
            <mxPoint x="93" y="490" as="targetPoint" />
          </mxGeometry>
        </mxCell>
        <mxCell id="4R8q3-wa9ZuzRIbeYS99-9" value="Password" style="ellipse;whiteSpace=wrap;html=1;" parent="1" vertex="1">
          <mxGeometry x="53" y="572" width="110" height="60" as="geometry" />
        </mxCell>
        <mxCell id="4R8q3-wa9ZuzRIbeYS99-10" value="has" style="rhombus;whiteSpace=wrap;html=1;" parent="1" vertex="1">
          <mxGeometry x="283" y="331" width="80" height="80" as="geometry" />
        </mxCell>
        <mxCell id="4R8q3-wa9ZuzRIbeYS99-11" value="" style="endArrow=none;html=1;rounded=0;entryX=0.5;entryY=0;entryDx=0;entryDy=0;exitX=0.5;exitY=1;exitDx=0;exitDy=0;" parent="1" source="4R8q3-wa9ZuzRIbeYS99-10" target="4R8q3-wa9ZuzRIbeYS99-4" edge="1">
          <mxGeometry width="50" height="50" relative="1" as="geometry">
            <mxPoint x="433" y="280" as="sourcePoint" />
            <mxPoint x="473" y="350" as="targetPoint" />
          </mxGeometry>
        </mxCell>
        <mxCell id="4R8q3-wa9ZuzRIbeYS99-12" value="" style="endArrow=none;html=1;rounded=0;exitX=1;exitY=0.5;exitDx=0;exitDy=0;entryX=0;entryY=0.5;entryDx=0;entryDy=0;" parent="1" source="4R8q3-wa9ZuzRIbeYS99-10" target="BbcCM_fRbmNqIQQwemn0-5" edge="1">
          <mxGeometry width="50" height="50" relative="1" as="geometry">
            <mxPoint x="313" y="302" as="sourcePoint" />
            <mxPoint x="463" y="248" as="targetPoint" />
          </mxGeometry>
        </mxCell>
        <mxCell id="4R8q3-wa9ZuzRIbeYS99-14" value="Name" style="ellipse;whiteSpace=wrap;html=1;" parent="1" vertex="1">
          <mxGeometry x="233" y="153" width="110" height="60" as="geometry" />
        </mxCell>
        <mxCell id="4R8q3-wa9ZuzRIbeYS99-15" value="email" style="ellipse;whiteSpace=wrap;html=1;" parent="1" vertex="1">
          <mxGeometry x="288" y="93" width="110" height="60" as="geometry" />
        </mxCell>
        <mxCell id="4R8q3-wa9ZuzRIbeYS99-16" value="" style="endArrow=classic;html=1;rounded=0;entryX=0.5;entryY=1;entryDx=0;entryDy=0;" parent="1" target="4R8q3-wa9ZuzRIbeYS99-14" edge="1">
          <mxGeometry width="50" height="50" relative="1" as="geometry">
            <mxPoint x="593" y="340" as="sourcePoint" />
            <mxPoint x="458" y="120" as="targetPoint" />
          </mxGeometry>
        </mxCell>
        <mxCell id="4R8q3-wa9ZuzRIbeYS99-21" value="Address" style="ellipse;whiteSpace=wrap;html=1;" parent="1" vertex="1">
          <mxGeometry x="493" y="33" width="110" height="60" as="geometry" />
        </mxCell>
        <mxCell id="4R8q3-wa9ZuzRIbeYS99-22" value="Birthday&amp;nbsp;" style="ellipse;whiteSpace=wrap;html=1;" parent="1" vertex="1">
          <mxGeometry x="821" y="80" width="110" height="60" as="geometry" />
        </mxCell>
        <mxCell id="4R8q3-wa9ZuzRIbeYS99-23" value="Role" style="ellipse;whiteSpace=wrap;html=1;" parent="1" vertex="1">
          <mxGeometry x="793" y="153" width="110" height="60" as="geometry" />
        </mxCell>
        <mxCell id="4R8q3-wa9ZuzRIbeYS99-24" value="Department" style="ellipse;whiteSpace=wrap;html=1;" parent="1" vertex="1">
          <mxGeometry x="733" y="33" width="110" height="60" as="geometry" />
        </mxCell>
        <mxCell id="4R8q3-wa9ZuzRIbeYS99-25" value="Phone Number&amp;nbsp;" style="ellipse;whiteSpace=wrap;html=1;" parent="1" vertex="1">
          <mxGeometry x="613" y="33" width="110" height="60" as="geometry" />
        </mxCell>
        <mxCell id="4R8q3-wa9ZuzRIbeYS99-26" value="" style="endArrow=classic;html=1;rounded=0;exitX=0.5;exitY=0;exitDx=0;exitDy=0;" parent="1" source="BbcCM_fRbmNqIQQwemn0-5" target="4R8q3-wa9ZuzRIbeYS99-23" edge="1">
          <mxGeometry width="50" height="50" relative="1" as="geometry">
            <mxPoint x="523" y="459.68" as="sourcePoint" />
            <mxPoint x="679.3070411353083" y="360.0006099866668" as="targetPoint" />
          </mxGeometry>
        </mxCell>
        <mxCell id="4R8q3-wa9ZuzRIbeYS99-27" value="" style="endArrow=classic;html=1;rounded=0;entryX=0.258;entryY=0.906;entryDx=0;entryDy=0;entryPerimeter=0;exitX=0.5;exitY=0;exitDx=0;exitDy=0;" parent="1" source="BbcCM_fRbmNqIQQwemn0-5" target="4R8q3-wa9ZuzRIbeYS99-25" edge="1">
          <mxGeometry width="50" height="50" relative="1" as="geometry">
            <mxPoint x="543" y="320" as="sourcePoint" />
            <mxPoint x="773" y="180" as="targetPoint" />
          </mxGeometry>
        </mxCell>
        <mxCell id="4R8q3-wa9ZuzRIbeYS99-28" value="" style="endArrow=classic;html=1;rounded=0;" parent="1" target="4R8q3-wa9ZuzRIbeYS99-21" edge="1">
          <mxGeometry width="50" height="50" relative="1" as="geometry">
            <mxPoint x="593" y="340" as="sourcePoint" />
            <mxPoint x="719" y="161" as="targetPoint" />
          </mxGeometry>
        </mxCell>
        <mxCell id="4R8q3-wa9ZuzRIbeYS99-29" value="" style="endArrow=classic;html=1;rounded=0;entryX=0.02;entryY=0.667;entryDx=0;entryDy=0;entryPerimeter=0;" parent="1" target="4R8q3-wa9ZuzRIbeYS99-24" edge="1">
          <mxGeometry width="50" height="50" relative="1" as="geometry">
            <mxPoint x="593" y="340" as="sourcePoint" />
            <mxPoint x="729" y="171" as="targetPoint" />
          </mxGeometry>
        </mxCell>
        <mxCell id="4R8q3-wa9ZuzRIbeYS99-30" value="" style="endArrow=classic;html=1;rounded=0;entryX=0;entryY=0.5;entryDx=0;entryDy=0;exitX=0.5;exitY=0;exitDx=0;exitDy=0;" parent="1" source="BbcCM_fRbmNqIQQwemn0-5" target="4R8q3-wa9ZuzRIbeYS99-22" edge="1">
          <mxGeometry width="50" height="50" relative="1" as="geometry">
            <mxPoint x="583" y="281" as="sourcePoint" />
            <mxPoint x="739" y="181" as="targetPoint" />
          </mxGeometry>
        </mxCell>
        <mxCell id="4R8q3-wa9ZuzRIbeYS99-33" value="" style="endArrow=classic;html=1;rounded=0;entryX=0.5;entryY=1;entryDx=0;entryDy=0;" parent="1" target="BbcCM_fRbmNqIQQwemn0-41" edge="1">
          <mxGeometry width="50" height="50" relative="1" as="geometry">
            <mxPoint x="593" y="340" as="sourcePoint" />
            <mxPoint x="647" y="143" as="targetPoint" />
          </mxGeometry>
        </mxCell>
        <mxCell id="4R8q3-wa9ZuzRIbeYS99-73" value="Employee" style="rounded=0;whiteSpace=wrap;html=1;" parent="1" vertex="1">
          <mxGeometry x="228" y="940" width="120" height="60" as="geometry" />
        </mxCell>
        <mxCell id="4R8q3-wa9ZuzRIbeYS99-74" value="" style="endArrow=classic;html=1;rounded=0;entryX=1;entryY=0.5;entryDx=0;entryDy=0;exitX=0.467;exitY=1.004;exitDx=0;exitDy=0;exitPerimeter=0;" parent="1" source="4R8q3-wa9ZuzRIbeYS99-73" target="4R8q3-wa9ZuzRIbeYS99-101" edge="1">
          <mxGeometry width="50" height="50" relative="1" as="geometry">
            <mxPoint x="663" y="1056" as="sourcePoint" />
            <mxPoint x="328" y="820.0000000000002" as="targetPoint" />
          </mxGeometry>
        </mxCell>
        <mxCell id="4R8q3-wa9ZuzRIbeYS99-75" value="" style="endArrow=classic;html=1;rounded=0;exitX=0.472;exitY=1.007;exitDx=0;exitDy=0;exitPerimeter=0;" parent="1" source="4R8q3-wa9ZuzRIbeYS99-73" target="4R8q3-wa9ZuzRIbeYS99-76" edge="1">
          <mxGeometry width="50" height="50" relative="1" as="geometry">
            <mxPoint x="288" y="906" as="sourcePoint" />
            <mxPoint x="253" y="836" as="targetPoint" />
          </mxGeometry>
        </mxCell>
        <mxCell id="4R8q3-wa9ZuzRIbeYS99-76" value="ID" style="ellipse;whiteSpace=wrap;html=1;" parent="1" vertex="1">
          <mxGeometry x="308" y="1340" width="110" height="60" as="geometry" />
        </mxCell>
        <mxCell id="4R8q3-wa9ZuzRIbeYS99-77" value="Password" style="ellipse;whiteSpace=wrap;html=1;" parent="1" vertex="1">
          <mxGeometry x="423" y="1310" width="110" height="60" as="geometry" />
        </mxCell>
        <mxCell id="4R8q3-wa9ZuzRIbeYS99-80" value="Name" style="ellipse;whiteSpace=wrap;html=1;" parent="1" vertex="1">
          <mxGeometry x="183" y="1330" width="110" height="60" as="geometry" />
        </mxCell>
        <mxCell id="4R8q3-wa9ZuzRIbeYS99-82" value="" style="endArrow=classic;html=1;rounded=0;exitX=0.469;exitY=0.997;exitDx=0;exitDy=0;exitPerimeter=0;entryX=1;entryY=0.5;entryDx=0;entryDy=0;" parent="1" source="4R8q3-wa9ZuzRIbeYS99-73" target="4R8q3-wa9ZuzRIbeYS99-80" edge="1">
          <mxGeometry width="50" height="50" relative="1" as="geometry">
            <mxPoint x="623" y="640" as="sourcePoint" />
            <mxPoint x="353" y="800" as="targetPoint" />
          </mxGeometry>
        </mxCell>
        <mxCell id="4R8q3-wa9ZuzRIbeYS99-83" value="Address" style="ellipse;whiteSpace=wrap;html=1;" parent="1" vertex="1">
          <mxGeometry x="93" y="1280" width="110" height="60" as="geometry" />
        </mxCell>
        <mxCell id="4R8q3-wa9ZuzRIbeYS99-84" value="Birthday&amp;nbsp;" style="ellipse;whiteSpace=wrap;html=1;" parent="1" vertex="1">
          <mxGeometry x="583" y="1181" width="110" height="60" as="geometry" />
        </mxCell>
        <mxCell id="4R8q3-wa9ZuzRIbeYS99-85" value="Role" style="ellipse;whiteSpace=wrap;html=1;" parent="1" vertex="1">
          <mxGeometry x="503" y="1260" width="110" height="60" as="geometry" />
        </mxCell>
        <mxCell id="4R8q3-wa9ZuzRIbeYS99-86" value="Department" style="ellipse;whiteSpace=wrap;html=1;" parent="1" vertex="1">
          <mxGeometry x="23" y="1050" width="110" height="60" as="geometry" />
        </mxCell>
        <mxCell id="4R8q3-wa9ZuzRIbeYS99-87" value="Phone Number&amp;nbsp;" style="ellipse;whiteSpace=wrap;html=1;" parent="1" vertex="1">
          <mxGeometry x="23" y="1120" width="110" height="60" as="geometry" />
        </mxCell>
        <mxCell id="4R8q3-wa9ZuzRIbeYS99-88" value="" style="endArrow=classic;html=1;rounded=0;exitX=0.47;exitY=1.016;exitDx=0;exitDy=0;exitPerimeter=0;" parent="1" source="4R8q3-wa9ZuzRIbeYS99-73" target="4R8q3-wa9ZuzRIbeYS99-85" edge="1">
          <mxGeometry width="50" height="50" relative="1" as="geometry">
            <mxPoint x="633" y="640" as="sourcePoint" />
            <mxPoint x="749.3070411353083" y="1076.0006099866669" as="targetPoint" />
          </mxGeometry>
        </mxCell>
        <mxCell id="4R8q3-wa9ZuzRIbeYS99-89" value="" style="endArrow=classic;html=1;rounded=0;entryX=1;entryY=0.5;entryDx=0;entryDy=0;exitX=0.471;exitY=1.015;exitDx=0;exitDy=0;exitPerimeter=0;" parent="1" source="4R8q3-wa9ZuzRIbeYS99-73" target="4R8q3-wa9ZuzRIbeYS99-87" edge="1">
          <mxGeometry width="50" height="50" relative="1" as="geometry">
            <mxPoint x="623" y="640" as="sourcePoint" />
            <mxPoint x="843" y="896" as="targetPoint" />
          </mxGeometry>
        </mxCell>
        <mxCell id="4R8q3-wa9ZuzRIbeYS99-90" value="" style="endArrow=classic;html=1;rounded=0;exitX=0.465;exitY=1.011;exitDx=0;exitDy=0;exitPerimeter=0;entryX=0.989;entryY=0.38;entryDx=0;entryDy=0;entryPerimeter=0;" parent="1" source="4R8q3-wa9ZuzRIbeYS99-73" target="4R8q3-wa9ZuzRIbeYS99-83" edge="1">
          <mxGeometry width="50" height="50" relative="1" as="geometry">
            <mxPoint x="623" y="640" as="sourcePoint" />
            <mxPoint x="465.7061556095364" y="911.4174304500352" as="targetPoint" />
          </mxGeometry>
        </mxCell>
        <mxCell id="4R8q3-wa9ZuzRIbeYS99-91" value="" style="endArrow=classic;html=1;rounded=0;exitX=0.468;exitY=1.013;exitDx=0;exitDy=0;exitPerimeter=0;entryX=1;entryY=0.5;entryDx=0;entryDy=0;" parent="1" source="4R8q3-wa9ZuzRIbeYS99-73" target="4R8q3-wa9ZuzRIbeYS99-86" edge="1">
          <mxGeometry width="50" height="50" relative="1" as="geometry">
            <mxPoint x="663" y="1056" as="sourcePoint" />
            <mxPoint x="133" y="1000" as="targetPoint" />
          </mxGeometry>
        </mxCell>
        <mxCell id="4R8q3-wa9ZuzRIbeYS99-92" value="" style="endArrow=classic;html=1;rounded=0;entryX=0;entryY=0.5;entryDx=0;entryDy=0;exitX=0.467;exitY=1.016;exitDx=0;exitDy=0;exitPerimeter=0;" parent="1" source="4R8q3-wa9ZuzRIbeYS99-73" target="4R8q3-wa9ZuzRIbeYS99-84" edge="1">
          <mxGeometry width="50" height="50" relative="1" as="geometry">
            <mxPoint x="633" y="640" as="sourcePoint" />
            <mxPoint x="809" y="897" as="targetPoint" />
          </mxGeometry>
        </mxCell>
        <mxCell id="4R8q3-wa9ZuzRIbeYS99-93" value="" style="endArrow=classic;html=1;rounded=0;entryX=0.5;entryY=0;entryDx=0;entryDy=0;exitX=0.469;exitY=1.007;exitDx=0;exitDy=0;exitPerimeter=0;" parent="1" source="4R8q3-wa9ZuzRIbeYS99-73" target="4R8q3-wa9ZuzRIbeYS99-77" edge="1">
          <mxGeometry width="50" height="50" relative="1" as="geometry">
            <mxPoint x="623" y="640" as="sourcePoint" />
            <mxPoint x="717" y="859" as="targetPoint" />
          </mxGeometry>
        </mxCell>
        <mxCell id="4R8q3-wa9ZuzRIbeYS99-98" value="has" style="rhombus;whiteSpace=wrap;html=1;" parent="1" vertex="1">
          <mxGeometry x="283" y="640" width="80" height="80" as="geometry" />
        </mxCell>
        <mxCell id="4R8q3-wa9ZuzRIbeYS99-99" value="" style="endArrow=none;html=1;rounded=0;exitX=0;exitY=0.5;exitDx=0;exitDy=0;entryX=0;entryY=0.25;entryDx=0;entryDy=0;" parent="1" source="4R8q3-wa9ZuzRIbeYS99-98" target="4R8q3-wa9ZuzRIbeYS99-73" edge="1">
          <mxGeometry width="50" height="50" relative="1" as="geometry">
            <mxPoint x="293" y="690" as="sourcePoint" />
            <mxPoint x="353" y="970" as="targetPoint" />
            <Array as="points">
              <mxPoint x="143" y="680" />
              <mxPoint x="143" y="955" />
            </Array>
          </mxGeometry>
        </mxCell>
        <mxCell id="4R8q3-wa9ZuzRIbeYS99-100" value="" style="endArrow=none;html=1;rounded=0;exitX=0.5;exitY=1;exitDx=0;exitDy=0;" parent="1" edge="1" source="4R8q3-wa9ZuzRIbeYS99-4">
          <mxGeometry width="50" height="50" relative="1" as="geometry">
            <mxPoint x="347.28999999999996" y="561" as="sourcePoint" />
            <mxPoint x="323" y="640" as="targetPoint" />
          </mxGeometry>
        </mxCell>
        <mxCell id="4R8q3-wa9ZuzRIbeYS99-101" value="email" style="ellipse;whiteSpace=wrap;html=1;" parent="1" vertex="1">
          <mxGeometry x="33" y="1200" width="110" height="60" as="geometry" />
        </mxCell>
        <mxCell id="4R8q3-wa9ZuzRIbeYS99-102" value="Manage" style="rhombus;whiteSpace=wrap;html=1;" parent="1" vertex="1">
          <mxGeometry x="713" y="334" width="80" height="80" as="geometry" />
        </mxCell>
        <mxCell id="4R8q3-wa9ZuzRIbeYS99-103" value="" style="endArrow=none;html=1;rounded=0;entryX=0;entryY=0.5;entryDx=0;entryDy=0;exitX=1;exitY=0.5;exitDx=0;exitDy=0;" parent="1" edge="1" target="BbcCM_fRbmNqIQQwemn0-12" source="4R8q3-wa9ZuzRIbeYS99-102">
          <mxGeometry width="50" height="50" relative="1" as="geometry">
            <mxPoint x="869.4000000000001" y="478.3599999999999" as="sourcePoint" />
            <mxPoint x="874.89" y="591.5" as="targetPoint" />
          </mxGeometry>
        </mxCell>
        <mxCell id="4R8q3-wa9ZuzRIbeYS99-104" value="" style="endArrow=none;html=1;rounded=0;exitX=0.5;exitY=1;exitDx=0;exitDy=0;entryX=0.562;entryY=0.001;entryDx=0;entryDy=0;entryPerimeter=0;" parent="1" source="4R8q3-wa9ZuzRIbeYS99-102" edge="1" target="4R8q3-wa9ZuzRIbeYS99-73">
          <mxGeometry width="50" height="50" relative="1" as="geometry">
            <mxPoint x="595" y="582" as="sourcePoint" />
            <mxPoint x="413" y="940" as="targetPoint" />
            <Array as="points">
              <mxPoint x="493" y="520" />
            </Array>
          </mxGeometry>
        </mxCell>
        <mxCell id="4R8q3-wa9ZuzRIbeYS99-105" value="" style="endArrow=none;html=1;rounded=0;entryX=0;entryY=0.5;entryDx=0;entryDy=0;" parent="1" target="4R8q3-wa9ZuzRIbeYS99-102" edge="1" source="BbcCM_fRbmNqIQQwemn0-5">
          <mxGeometry width="50" height="50" relative="1" as="geometry">
            <mxPoint x="596.5" y="401" as="sourcePoint" />
            <mxPoint x="596" y="500" as="targetPoint" />
          </mxGeometry>
        </mxCell>
        <mxCell id="4R8q3-wa9ZuzRIbeYS99-110" value="ID" style="ellipse;whiteSpace=wrap;html=1;" parent="1" vertex="1">
          <mxGeometry x="1223" y="471" width="110" height="60" as="geometry" />
        </mxCell>
        <mxCell id="4R8q3-wa9ZuzRIbeYS99-111" value="ID" style="ellipse;whiteSpace=wrap;html=1;" parent="1" vertex="1">
          <mxGeometry x="1243" y="150" width="110" height="60" as="geometry" />
        </mxCell>
        <mxCell id="4R8q3-wa9ZuzRIbeYS99-112" value="ID" style="ellipse;whiteSpace=wrap;html=1;" parent="1" vertex="1">
          <mxGeometry x="1052" y="50" width="110" height="60" as="geometry" />
        </mxCell>
        <mxCell id="4R8q3-wa9ZuzRIbeYS99-113" value="department" style="ellipse;whiteSpace=wrap;html=1;" parent="1" vertex="1">
          <mxGeometry x="1193" y="80" width="110" height="60" as="geometry" />
        </mxCell>
        <mxCell id="4R8q3-wa9ZuzRIbeYS99-114" value="" style="endArrow=classic;html=1;rounded=0;entryX=0.352;entryY=0.967;entryDx=0;entryDy=0;entryPerimeter=0;exitX=0.5;exitY=0;exitDx=0;exitDy=0;" parent="1" target="4R8q3-wa9ZuzRIbeYS99-113" edge="1" source="BbcCM_fRbmNqIQQwemn0-13">
          <mxGeometry width="50" height="50" relative="1" as="geometry">
            <mxPoint x="1013" y="480" as="sourcePoint" />
            <mxPoint x="1563" y="434" as="targetPoint" />
            <Array as="points" />
          </mxGeometry>
        </mxCell>
        <mxCell id="4R8q3-wa9ZuzRIbeYS99-115" value="" style="endArrow=classic;html=1;rounded=0;entryX=0.5;entryY=1;entryDx=0;entryDy=0;exitX=0.5;exitY=0;exitDx=0;exitDy=0;" parent="1" source="BbcCM_fRbmNqIQQwemn0-13" target="4R8q3-wa9ZuzRIbeYS99-112" edge="1">
          <mxGeometry width="50" height="50" relative="1" as="geometry">
            <mxPoint x="1323" y="450" as="sourcePoint" />
            <mxPoint x="1402" y="428" as="targetPoint" />
          </mxGeometry>
        </mxCell>
        <mxCell id="4R8q3-wa9ZuzRIbeYS99-116" value="" style="endArrow=classic;html=1;rounded=0;exitX=1;exitY=0.5;exitDx=0;exitDy=0;" parent="1" edge="1" target="RnmnXj-n9i1BZNP6ZCbf-6" source="BbcCM_fRbmNqIQQwemn0-12">
          <mxGeometry width="50" height="50" relative="1" as="geometry">
            <mxPoint x="1083" y="590" as="sourcePoint" />
            <mxPoint x="1103" y="520" as="targetPoint" />
          </mxGeometry>
        </mxCell>
        <mxCell id="RnmnXj-n9i1BZNP6ZCbf-5" value="" style="endArrow=classic;html=1;rounded=0;entryX=0.368;entryY=1.01;entryDx=0;entryDy=0;exitX=1;exitY=0.5;exitDx=0;exitDy=0;entryPerimeter=0;" edge="1" parent="1" source="BbcCM_fRbmNqIQQwemn0-12" target="4R8q3-wa9ZuzRIbeYS99-111">
          <mxGeometry width="50" height="50" relative="1" as="geometry">
            <mxPoint x="1013" y="480" as="sourcePoint" />
            <mxPoint x="1042" y="438" as="targetPoint" />
          </mxGeometry>
        </mxCell>
        <mxCell id="BbcCM_fRbmNqIQQwemn0-13" value="Department" style="rounded=0;whiteSpace=wrap;html=1;" parent="1" vertex="1">
          <mxGeometry x="863" y="250" width="120" height="60" as="geometry" />
        </mxCell>
        <mxCell id="RnmnXj-n9i1BZNP6ZCbf-6" value="employee_id" style="ellipse;whiteSpace=wrap;html=1;" vertex="1" parent="1">
          <mxGeometry x="1363" y="120" width="110" height="60" as="geometry" />
        </mxCell>
        <mxCell id="RnmnXj-n9i1BZNP6ZCbf-7" value="leave_id" style="ellipse;whiteSpace=wrap;html=1;" vertex="1" parent="1">
          <mxGeometry x="1363" y="230" width="110" height="60" as="geometry" />
        </mxCell>
        <mxCell id="RnmnXj-n9i1BZNP6ZCbf-8" value="salary_month" style="ellipse;whiteSpace=wrap;html=1;" vertex="1" parent="1">
          <mxGeometry x="1323" y="910" width="110" height="60" as="geometry" />
        </mxCell>
        <mxCell id="RnmnXj-n9i1BZNP6ZCbf-9" value="Name" style="ellipse;whiteSpace=wrap;html=1;" vertex="1" parent="1">
          <mxGeometry x="523" y="700" width="110" height="60" as="geometry" />
        </mxCell>
        <mxCell id="RnmnXj-n9i1BZNP6ZCbf-10" value="leave_to" style="ellipse;whiteSpace=wrap;html=1;" vertex="1" parent="1">
          <mxGeometry x="1363" y="370" width="110" height="60" as="geometry" />
        </mxCell>
        <mxCell id="RnmnXj-n9i1BZNP6ZCbf-11" value="leave_from" style="ellipse;whiteSpace=wrap;html=1;" vertex="1" parent="1">
          <mxGeometry x="1353" y="310" width="110" height="60" as="geometry" />
        </mxCell>
        <mxCell id="RnmnXj-n9i1BZNP6ZCbf-12" value="leave_description&amp;nbsp;" style="ellipse;whiteSpace=wrap;html=1;" vertex="1" parent="1">
          <mxGeometry x="1363" y="430" width="110" height="60" as="geometry" />
        </mxCell>
        <mxCell id="RnmnXj-n9i1BZNP6ZCbf-16" value="" style="endArrow=classic;html=1;rounded=0;entryX=0.009;entryY=0.681;entryDx=0;entryDy=0;exitX=1;exitY=0.5;exitDx=0;exitDy=0;entryPerimeter=0;" edge="1" parent="1" source="RnmnXj-n9i1BZNP6ZCbf-25" target="4R8q3-wa9ZuzRIbeYS99-110">
          <mxGeometry width="50" height="50" relative="1" as="geometry">
            <mxPoint x="1272" y="907.26" as="sourcePoint" />
            <mxPoint x="1387.96" y="850" as="targetPoint" />
          </mxGeometry>
        </mxCell>
        <mxCell id="RnmnXj-n9i1BZNP6ZCbf-17" value="" style="endArrow=classic;html=1;rounded=0;entryX=0;entryY=0.5;entryDx=0;entryDy=0;exitX=1;exitY=0.5;exitDx=0;exitDy=0;" edge="1" parent="1" source="BbcCM_fRbmNqIQQwemn0-12" target="RnmnXj-n9i1BZNP6ZCbf-7">
          <mxGeometry width="50" height="50" relative="1" as="geometry">
            <mxPoint x="1043" y="580" as="sourcePoint" />
            <mxPoint x="1163" y="511" as="targetPoint" />
          </mxGeometry>
        </mxCell>
        <mxCell id="RnmnXj-n9i1BZNP6ZCbf-18" value="" style="endArrow=classic;html=1;rounded=0;entryX=0.004;entryY=0.45;entryDx=0;entryDy=0;entryPerimeter=0;exitX=1;exitY=0.5;exitDx=0;exitDy=0;" edge="1" parent="1" source="BbcCM_fRbmNqIQQwemn0-12" target="RnmnXj-n9i1BZNP6ZCbf-11">
          <mxGeometry width="50" height="50" relative="1" as="geometry">
            <mxPoint x="1053" y="590" as="sourcePoint" />
            <mxPoint x="1173" y="521" as="targetPoint" />
          </mxGeometry>
        </mxCell>
        <mxCell id="RnmnXj-n9i1BZNP6ZCbf-19" value="" style="endArrow=classic;html=1;rounded=0;entryX=0.056;entryY=0.229;entryDx=0;entryDy=0;entryPerimeter=0;exitX=1;exitY=0.5;exitDx=0;exitDy=0;" edge="1" parent="1" source="BbcCM_fRbmNqIQQwemn0-12" target="RnmnXj-n9i1BZNP6ZCbf-10">
          <mxGeometry width="50" height="50" relative="1" as="geometry">
            <mxPoint x="1063" y="600" as="sourcePoint" />
            <mxPoint x="1183" y="531" as="targetPoint" />
          </mxGeometry>
        </mxCell>
        <mxCell id="RnmnXj-n9i1BZNP6ZCbf-20" value="" style="endArrow=classic;html=1;rounded=0;entryX=0;entryY=0.5;entryDx=0;entryDy=0;exitX=1;exitY=0.5;exitDx=0;exitDy=0;" edge="1" parent="1" source="BbcCM_fRbmNqIQQwemn0-12" target="RnmnXj-n9i1BZNP6ZCbf-12">
          <mxGeometry width="50" height="50" relative="1" as="geometry">
            <mxPoint x="1073" y="610" as="sourcePoint" />
            <mxPoint x="1193" y="541" as="targetPoint" />
          </mxGeometry>
        </mxCell>
        <mxCell id="RnmnXj-n9i1BZNP6ZCbf-22" value="monthly_salary" style="ellipse;whiteSpace=wrap;html=1;" vertex="1" parent="1">
          <mxGeometry x="1343" y="707" width="110" height="60" as="geometry" />
        </mxCell>
        <mxCell id="RnmnXj-n9i1BZNP6ZCbf-25" value="Leave Type" style="rounded=0;whiteSpace=wrap;html=1;" vertex="1" parent="1">
          <mxGeometry x="943" y="450" width="120" height="60" as="geometry" />
        </mxCell>
        <mxCell id="RnmnXj-n9i1BZNP6ZCbf-26" value="" style="endArrow=none;html=1;rounded=0;exitX=1;exitY=0.5;exitDx=0;exitDy=0;entryX=0;entryY=0.5;entryDx=0;entryDy=0;" edge="1" parent="1" source="4R8q3-wa9ZuzRIbeYS99-102" target="BbcCM_fRbmNqIQQwemn0-13">
          <mxGeometry width="50" height="50" relative="1" as="geometry">
            <mxPoint x="753" y="660" as="sourcePoint" />
            <mxPoint x="803" y="610" as="targetPoint" />
          </mxGeometry>
        </mxCell>
        <mxCell id="RnmnXj-n9i1BZNP6ZCbf-28" value="" style="endArrow=none;html=1;rounded=0;entryX=0;entryY=0.25;entryDx=0;entryDy=0;exitX=1;exitY=0.5;exitDx=0;exitDy=0;" edge="1" parent="1" source="4R8q3-wa9ZuzRIbeYS99-102" target="RnmnXj-n9i1BZNP6ZCbf-25">
          <mxGeometry width="50" height="50" relative="1" as="geometry">
            <mxPoint x="646" y="552" as="sourcePoint" />
            <mxPoint x="893" y="482" as="targetPoint" />
          </mxGeometry>
        </mxCell>
        <mxCell id="RnmnXj-n9i1BZNP6ZCbf-32" value="leave_type" style="ellipse;whiteSpace=wrap;html=1;" vertex="1" parent="1">
          <mxGeometry x="1263" y="530" width="110" height="60" as="geometry" />
        </mxCell>
        <mxCell id="RnmnXj-n9i1BZNP6ZCbf-34" value="max_days_per_year" style="ellipse;whiteSpace=wrap;html=1;" vertex="1" parent="1">
          <mxGeometry x="1243" y="590" width="110" height="60" as="geometry" />
        </mxCell>
        <mxCell id="RnmnXj-n9i1BZNP6ZCbf-35" value="" style="endArrow=classic;html=1;rounded=0;exitX=1;exitY=0.5;exitDx=0;exitDy=0;entryX=0;entryY=0.5;entryDx=0;entryDy=0;" edge="1" parent="1" source="RnmnXj-n9i1BZNP6ZCbf-25" target="RnmnXj-n9i1BZNP6ZCbf-34">
          <mxGeometry width="50" height="50" relative="1" as="geometry">
            <mxPoint x="1003" y="650" as="sourcePoint" />
            <mxPoint x="1243" y="720" as="targetPoint" />
          </mxGeometry>
        </mxCell>
        <mxCell id="RnmnXj-n9i1BZNP6ZCbf-36" value="" style="endArrow=classic;html=1;rounded=0;entryX=0;entryY=0.5;entryDx=0;entryDy=0;exitX=1;exitY=0.5;exitDx=0;exitDy=0;" edge="1" parent="1" source="RnmnXj-n9i1BZNP6ZCbf-25" target="RnmnXj-n9i1BZNP6ZCbf-32">
          <mxGeometry width="50" height="50" relative="1" as="geometry">
            <mxPoint x="1023" y="665" as="sourcePoint" />
            <mxPoint x="1213" y="710" as="targetPoint" />
          </mxGeometry>
        </mxCell>
        <mxCell id="RnmnXj-n9i1BZNP6ZCbf-37" value="salary_id&amp;nbsp;" style="ellipse;whiteSpace=wrap;html=1;" vertex="1" parent="1">
          <mxGeometry x="1073" y="572" width="110" height="60" as="geometry" />
        </mxCell>
        <mxCell id="RnmnXj-n9i1BZNP6ZCbf-39" value="employee_id" style="ellipse;whiteSpace=wrap;html=1;" vertex="1" parent="1">
          <mxGeometry x="1373" y="770" width="110" height="60" as="geometry" />
        </mxCell>
        <mxCell id="RnmnXj-n9i1BZNP6ZCbf-40" value="employee_name" style="ellipse;whiteSpace=wrap;html=1;" vertex="1" parent="1">
          <mxGeometry x="1373" y="632" width="110" height="60" as="geometry" />
        </mxCell>
        <mxCell id="RnmnXj-n9i1BZNP6ZCbf-41" value="calculated_salary" style="ellipse;whiteSpace=wrap;html=1;" vertex="1" parent="1">
          <mxGeometry x="1323" y="840" width="110" height="60" as="geometry" />
        </mxCell>
        <mxCell id="RnmnXj-n9i1BZNP6ZCbf-42" value="total_leave_days" style="ellipse;whiteSpace=wrap;html=1;" vertex="1" parent="1">
          <mxGeometry x="1293" y="990" width="110" height="60" as="geometry" />
        </mxCell>
        <mxCell id="RnmnXj-n9i1BZNP6ZCbf-43" value="effective_working&lt;br&gt;_days" style="ellipse;whiteSpace=wrap;html=1;" vertex="1" parent="1">
          <mxGeometry x="1233" y="1050" width="110" height="60" as="geometry" />
        </mxCell>
        <mxCell id="RnmnXj-n9i1BZNP6ZCbf-44" value="" style="endArrow=classic;html=1;rounded=0;entryX=0.392;entryY=0.027;entryDx=0;entryDy=0;exitX=1;exitY=0.5;exitDx=0;exitDy=0;entryPerimeter=0;" edge="1" parent="1" source="BbcCM_fRbmNqIQQwemn0-9" target="RnmnXj-n9i1BZNP6ZCbf-43">
          <mxGeometry width="50" height="50" relative="1" as="geometry">
            <mxPoint x="943" y="890" as="sourcePoint" />
            <mxPoint x="1053" y="1060" as="targetPoint" />
          </mxGeometry>
        </mxCell>
        <mxCell id="RnmnXj-n9i1BZNP6ZCbf-45" value="" style="endArrow=classic;html=1;rounded=0;exitX=1;exitY=0.5;exitDx=0;exitDy=0;" edge="1" parent="1" source="BbcCM_fRbmNqIQQwemn0-9" target="RnmnXj-n9i1BZNP6ZCbf-42">
          <mxGeometry width="50" height="50" relative="1" as="geometry">
            <mxPoint x="1013" y="820" as="sourcePoint" />
            <mxPoint x="1123" y="1000" as="targetPoint" />
          </mxGeometry>
        </mxCell>
        <mxCell id="RnmnXj-n9i1BZNP6ZCbf-46" value="" style="endArrow=classic;html=1;rounded=0;entryX=0;entryY=0.5;entryDx=0;entryDy=0;exitX=1;exitY=0.5;exitDx=0;exitDy=0;" edge="1" parent="1" source="BbcCM_fRbmNqIQQwemn0-9" target="RnmnXj-n9i1BZNP6ZCbf-39">
          <mxGeometry width="50" height="50" relative="1" as="geometry">
            <mxPoint x="963" y="900" as="sourcePoint" />
            <mxPoint x="1073" y="1080" as="targetPoint" />
          </mxGeometry>
        </mxCell>
        <mxCell id="RnmnXj-n9i1BZNP6ZCbf-47" value="" style="endArrow=classic;html=1;rounded=0;entryX=0.355;entryY=1.013;entryDx=0;entryDy=0;entryPerimeter=0;" edge="1" parent="1" target="RnmnXj-n9i1BZNP6ZCbf-37">
          <mxGeometry width="50" height="50" relative="1" as="geometry">
            <mxPoint x="1023" y="680" as="sourcePoint" />
            <mxPoint x="1083" y="1090" as="targetPoint" />
          </mxGeometry>
        </mxCell>
        <mxCell id="RnmnXj-n9i1BZNP6ZCbf-48" value="" style="endArrow=classic;html=1;rounded=0;entryX=0.056;entryY=0.807;entryDx=0;entryDy=0;exitX=1;exitY=0.5;exitDx=0;exitDy=0;entryPerimeter=0;" edge="1" parent="1" source="BbcCM_fRbmNqIQQwemn0-9" target="RnmnXj-n9i1BZNP6ZCbf-40">
          <mxGeometry width="50" height="50" relative="1" as="geometry">
            <mxPoint x="1003" y="850" as="sourcePoint" />
            <mxPoint x="1113" y="1030" as="targetPoint" />
          </mxGeometry>
        </mxCell>
        <mxCell id="RnmnXj-n9i1BZNP6ZCbf-49" value="" style="endArrow=classic;html=1;rounded=0;entryX=0.024;entryY=0.412;entryDx=0;entryDy=0;exitX=1;exitY=0.5;exitDx=0;exitDy=0;entryPerimeter=0;" edge="1" parent="1" source="BbcCM_fRbmNqIQQwemn0-9" target="RnmnXj-n9i1BZNP6ZCbf-8">
          <mxGeometry width="50" height="50" relative="1" as="geometry">
            <mxPoint x="1003" y="850" as="sourcePoint" />
            <mxPoint x="1113" y="1030" as="targetPoint" />
          </mxGeometry>
        </mxCell>
        <mxCell id="RnmnXj-n9i1BZNP6ZCbf-50" value="" style="endArrow=classic;html=1;rounded=0;" edge="1" parent="1" target="RnmnXj-n9i1BZNP6ZCbf-22">
          <mxGeometry width="50" height="50" relative="1" as="geometry">
            <mxPoint x="1023" y="680" as="sourcePoint" />
            <mxPoint x="1133" y="865" as="targetPoint" />
          </mxGeometry>
        </mxCell>
        <mxCell id="RnmnXj-n9i1BZNP6ZCbf-51" value="" style="endArrow=classic;html=1;rounded=0;entryX=0;entryY=0.5;entryDx=0;entryDy=0;exitX=1;exitY=0.5;exitDx=0;exitDy=0;" edge="1" parent="1" source="BbcCM_fRbmNqIQQwemn0-9" target="RnmnXj-n9i1BZNP6ZCbf-41">
          <mxGeometry width="50" height="50" relative="1" as="geometry">
            <mxPoint x="943" y="880" as="sourcePoint" />
            <mxPoint x="1172" y="955" as="targetPoint" />
          </mxGeometry>
        </mxCell>
        <mxCell id="RnmnXj-n9i1BZNP6ZCbf-52" value="" style="endArrow=none;html=1;rounded=0;entryX=0;entryY=0.5;entryDx=0;entryDy=0;exitX=0.5;exitY=1;exitDx=0;exitDy=0;" edge="1" parent="1" source="4R8q3-wa9ZuzRIbeYS99-102" target="BbcCM_fRbmNqIQQwemn0-9">
          <mxGeometry width="50" height="50" relative="1" as="geometry">
            <mxPoint x="633" y="540" as="sourcePoint" />
            <mxPoint x="893" y="625" as="targetPoint" />
          </mxGeometry>
        </mxCell>
        <mxCell id="RnmnXj-n9i1BZNP6ZCbf-63" value="" style="endArrow=none;html=1;rounded=0;entryX=0.5;entryY=0;entryDx=0;entryDy=0;exitX=0.5;exitY=1;exitDx=0;exitDy=0;" edge="1" parent="1" source="4R8q3-wa9ZuzRIbeYS99-102" target="RnmnXj-n9i1BZNP6ZCbf-64">
          <mxGeometry width="50" height="50" relative="1" as="geometry">
            <mxPoint x="753" y="420" as="sourcePoint" />
            <mxPoint x="793" y="1120" as="targetPoint" />
          </mxGeometry>
        </mxCell>
        <mxCell id="RnmnXj-n9i1BZNP6ZCbf-64" value="projects" style="rounded=0;whiteSpace=wrap;html=1;" vertex="1" parent="1">
          <mxGeometry x="613" y="550" width="120" height="60" as="geometry" />
        </mxCell>
        <mxCell id="RnmnXj-n9i1BZNP6ZCbf-66" value="ID" style="ellipse;whiteSpace=wrap;html=1;" vertex="1" parent="1">
          <mxGeometry x="513" y="623" width="110" height="60" as="geometry" />
        </mxCell>
        <mxCell id="RnmnXj-n9i1BZNP6ZCbf-70" value="status" style="ellipse;whiteSpace=wrap;html=1;" vertex="1" parent="1">
          <mxGeometry x="743" y="610" width="110" height="60" as="geometry" />
        </mxCell>
        <mxCell id="RnmnXj-n9i1BZNP6ZCbf-71" value="start_date" style="ellipse;whiteSpace=wrap;html=1;" vertex="1" parent="1">
          <mxGeometry x="578" y="767" width="110" height="60" as="geometry" />
        </mxCell>
        <mxCell id="RnmnXj-n9i1BZNP6ZCbf-72" value="description" style="ellipse;whiteSpace=wrap;html=1;" vertex="1" parent="1">
          <mxGeometry x="763" y="692" width="110" height="60" as="geometry" />
        </mxCell>
        <mxCell id="RnmnXj-n9i1BZNP6ZCbf-74" value="" style="endArrow=classic;html=1;rounded=0;entryX=0.5;entryY=0;entryDx=0;entryDy=0;exitX=0.5;exitY=1;exitDx=0;exitDy=0;" edge="1" parent="1" source="RnmnXj-n9i1BZNP6ZCbf-64" target="RnmnXj-n9i1BZNP6ZCbf-66">
          <mxGeometry width="50" height="50" relative="1" as="geometry">
            <mxPoint x="799.5" y="1181" as="sourcePoint" />
            <mxPoint x="952.5" y="1363" as="targetPoint" />
          </mxGeometry>
        </mxCell>
        <mxCell id="RnmnXj-n9i1BZNP6ZCbf-76" value="" style="endArrow=classic;html=1;rounded=0;exitX=0.5;exitY=1;exitDx=0;exitDy=0;" edge="1" parent="1" source="RnmnXj-n9i1BZNP6ZCbf-64" target="RnmnXj-n9i1BZNP6ZCbf-9">
          <mxGeometry width="50" height="50" relative="1" as="geometry">
            <mxPoint x="809.5" y="1191" as="sourcePoint" />
            <mxPoint x="688" y="1350" as="targetPoint" />
          </mxGeometry>
        </mxCell>
        <mxCell id="RnmnXj-n9i1BZNP6ZCbf-77" value="" style="endArrow=classic;html=1;rounded=0;exitX=0.5;exitY=1;exitDx=0;exitDy=0;" edge="1" parent="1" source="RnmnXj-n9i1BZNP6ZCbf-64" target="RnmnXj-n9i1BZNP6ZCbf-71">
          <mxGeometry width="50" height="50" relative="1" as="geometry">
            <mxPoint x="812" y="1192" as="sourcePoint" />
            <mxPoint x="825" y="1320" as="targetPoint" />
          </mxGeometry>
        </mxCell>
        <mxCell id="RnmnXj-n9i1BZNP6ZCbf-78" value="" style="endArrow=classic;html=1;rounded=0;exitX=0.5;exitY=1;exitDx=0;exitDy=0;" edge="1" parent="1" source="RnmnXj-n9i1BZNP6ZCbf-64" target="RnmnXj-n9i1BZNP6ZCbf-69">
          <mxGeometry width="50" height="50" relative="1" as="geometry">
            <mxPoint x="809" y="1192" as="sourcePoint" />
            <mxPoint x="924" y="1323" as="targetPoint" />
          </mxGeometry>
        </mxCell>
        <mxCell id="RnmnXj-n9i1BZNP6ZCbf-79" value="" style="endArrow=classic;html=1;rounded=0;exitX=0.5;exitY=1;exitDx=0;exitDy=0;" edge="1" parent="1" source="RnmnXj-n9i1BZNP6ZCbf-64" target="RnmnXj-n9i1BZNP6ZCbf-70">
          <mxGeometry width="50" height="50" relative="1" as="geometry">
            <mxPoint x="809" y="1191" as="sourcePoint" />
            <mxPoint x="1018" y="1299" as="targetPoint" />
          </mxGeometry>
        </mxCell>
        <mxCell id="RnmnXj-n9i1BZNP6ZCbf-80" value="" style="endArrow=classic;html=1;rounded=0;entryX=0;entryY=0.5;entryDx=0;entryDy=0;exitX=0.5;exitY=1;exitDx=0;exitDy=0;" edge="1" parent="1" source="RnmnXj-n9i1BZNP6ZCbf-64" target="RnmnXj-n9i1BZNP6ZCbf-72">
          <mxGeometry width="50" height="50" relative="1" as="geometry">
            <mxPoint x="804" y="1180" as="sourcePoint" />
            <mxPoint x="1013" y="1288" as="targetPoint" />
          </mxGeometry>
        </mxCell>
        <mxCell id="RnmnXj-n9i1BZNP6ZCbf-83" value="has" style="rhombus;whiteSpace=wrap;html=1;" vertex="1" parent="1">
          <mxGeometry x="463" y="930" width="80" height="80" as="geometry" />
        </mxCell>
        <mxCell id="RnmnXj-n9i1BZNP6ZCbf-84" value="" style="endArrow=none;html=1;rounded=0;exitX=1;exitY=0.5;exitDx=0;exitDy=0;entryX=0;entryY=0.5;entryDx=0;entryDy=0;" edge="1" parent="1" source="4R8q3-wa9ZuzRIbeYS99-73" target="RnmnXj-n9i1BZNP6ZCbf-83">
          <mxGeometry width="50" height="50" relative="1" as="geometry">
            <mxPoint x="473" y="969.05" as="sourcePoint" />
            <mxPoint x="573" y="970" as="targetPoint" />
          </mxGeometry>
        </mxCell>
        <mxCell id="RnmnXj-n9i1BZNP6ZCbf-85" value="" style="endArrow=none;html=1;rounded=0;exitX=0.5;exitY=0;exitDx=0;exitDy=0;entryX=0;entryY=0.5;entryDx=0;entryDy=0;" edge="1" parent="1" source="RnmnXj-n9i1BZNP6ZCbf-83" target="RnmnXj-n9i1BZNP6ZCbf-64">
          <mxGeometry width="50" height="50" relative="1" as="geometry">
            <mxPoint x="483" y="979.05" as="sourcePoint" />
            <mxPoint x="733" y="1140" as="targetPoint" />
            <Array as="points">
              <mxPoint x="503" y="580" />
            </Array>
          </mxGeometry>
        </mxCell>
        <mxCell id="RnmnXj-n9i1BZNP6ZCbf-69" value="end_date" style="ellipse;whiteSpace=wrap;html=1;" vertex="1" parent="1">
          <mxGeometry x="698" y="770" width="110" height="60" as="geometry" />
        </mxCell>
        <mxCell id="RnmnXj-n9i1BZNP6ZCbf-90" value="" style="endArrow=none;html=1;rounded=0;exitX=1;exitY=0.5;exitDx=0;exitDy=0;entryX=0.5;entryY=1;entryDx=0;entryDy=0;" edge="1" parent="1" source="RnmnXj-n9i1BZNP6ZCbf-83" target="BbcCM_fRbmNqIQQwemn0-9">
          <mxGeometry width="50" height="50" relative="1" as="geometry">
            <mxPoint x="618" y="1070" as="sourcePoint" />
            <mxPoint x="953" y="980" as="targetPoint" />
            <Array as="points">
              <mxPoint x="963" y="970" />
            </Array>
          </mxGeometry>
        </mxCell>
      </root>
    </mxGraphModel>
  </diagram>
</mxfile>
